<svg width="24" height="24" viewBox="0 0 24 24" fill="none" xmlns="http://www.w3.org/2000/svg">
<path d="M16.3962 9.49109C16.4302 9.52671 16.4569 9.56868 16.4747 9.6146C16.4925 9.66053 16.501 9.70951 16.4999 9.75874C16.4987 9.80798 16.4879 9.8565 16.468 9.90155C16.4481 9.94659 16.4195 9.98727 16.3839 10.0213L10.8839 15.2713C10.8142 15.3379 10.7214 15.375 10.625 15.375C10.5286 15.375 10.4359 15.3379 10.3661 15.2713L7.61604 12.6463C7.54455 12.5775 7.50322 12.4832 7.5011 12.384C7.49898 12.2848 7.53624 12.1889 7.60474 12.1171C7.67323 12.0453 7.76737 12.0036 7.86654 12.0011C7.96571 11.9986 8.06184 12.0355 8.13387 12.1037L10.625 14.4816L15.866 9.47873C15.9017 9.44472 15.9436 9.41807 15.9896 9.40028C16.0355 9.3825 16.0845 9.37393 16.1337 9.37508C16.1829 9.37623 16.2315 9.38707 16.2765 9.40697C16.3215 9.42688 16.3622 9.45546 16.3962 9.49109ZM21.375 12C21.375 13.8542 20.8251 15.6668 19.795 17.2085C18.7648 18.7502 17.3007 19.9518 15.5876 20.6614C13.8746 21.3709 11.9896 21.5566 10.171 21.1949C8.35241 20.8331 6.68195 19.9402 5.37083 18.6291C4.05971 17.318 3.16683 15.6475 2.80509 13.829C2.44336 12.0104 2.62901 10.1254 3.33858 8.41234C4.04816 6.69929 5.24977 5.23511 6.79148 4.20497C8.3332 3.17483 10.1458 2.625 12 2.625C14.4855 2.6278 16.8684 3.61642 18.626 5.37397C20.3835 7.13152 21.3722 9.51446 21.375 12ZM20.625 12C20.625 10.2941 20.1191 8.62658 19.1714 7.20821C18.2237 5.78983 16.8766 4.68435 15.3006 4.03154C13.7246 3.37873 11.9904 3.20793 10.3173 3.54073C8.64422 3.87352 7.10739 4.69498 5.90116 5.9012C4.69493 7.10743 3.87348 8.64426 3.54068 10.3173C3.20788 11.9904 3.37869 13.7246 4.03149 15.3006C4.6843 16.8767 5.78979 18.2237 7.20816 19.1714C8.62654 20.1192 10.2941 20.625 12 20.625C14.2867 20.6224 16.4789 19.7129 18.0959 18.0959C19.7128 16.479 20.6224 14.2867 20.625 12Z" fill="#2F2621"/>
</svg>
