<svg width="32" height="32" viewBox="0 0 32 32" fill="none" xmlns="http://www.w3.org/2000/svg">
<path d="M16 0C7.1783 0 0 7.1783 0 16C0 24.8217 7.1783 32 16 32C24.8217 32 32 24.8217 32 16C32 7.1783 24.8217 0 16 0ZM16 30.9323C7.76601 30.9323 1.06766 24.234 1.06766 16C1.06766 7.76601 7.76601 1.06766 16 1.06766C24.234 1.06766 30.9323 7.76601 30.9323 16C30.9323 24.234 24.234 30.9323 16 30.9323Z" fill="#2F2621"/>
<path d="M19.4923 7.02051H16.8302C13.6571 7.02051 13.0065 8.75372 13.0065 11.356L13.0085 13.0074H11.5098C11.2344 13.0074 11.0109 13.2309 11.0109 13.5063V16.4998C11.0109 16.7752 11.2344 16.9987 11.5098 16.9987H13.0065V24.4823C13.0065 24.7577 13.23 24.9812 13.5054 24.9812H16.5568C16.8322 24.9812 17.0557 24.7577 17.0557 24.4823L17.0577 16.9987H19.4923C19.7677 16.9987 19.9912 16.7752 19.9912 16.4998V13.5063C19.9912 13.2309 19.7677 13.0074 19.4923 13.0074H17.0567L17.0597 11.6145C17.0597 10.9429 17.0597 10.9429 17.6873 10.9419L19.4724 11.0118C19.5991 11.0158 19.7398 10.9669 19.8376 10.8731C19.9354 10.7793 19.9912 10.6486 19.9912 10.5129V7.51942C19.9912 7.24402 19.7677 7.02051 19.4923 7.02051ZM18.9934 9.994L17.7072 9.94411C16.1896 9.94411 16.0628 10.7693 16.0628 11.6125L16.0588 13.5043C16.0588 13.637 16.1107 13.7638 16.2045 13.8576C16.2973 13.9523 16.424 14.0052 16.5568 14.0052H18.9934V16.0009H16.5588C16.2834 16.0009 16.0598 16.2244 16.0598 16.4998L16.0578 23.9834H14.0043V16.4998C14.0043 16.2244 13.7808 16.0009 13.5054 16.0009H12.0087V14.0052H13.5084C13.6411 14.0052 13.7679 13.9523 13.8617 13.8586C13.9554 13.7648 14.0073 13.638 14.0073 13.5053L14.0043 11.355C14.0043 9.09497 14.4274 8.01833 16.8302 8.01833H18.9934V9.994Z" fill="#2F2621"/>
</svg>
