<svg width="32" height="32" viewBox="0 0 32 32" fill="none" xmlns="http://www.w3.org/2000/svg">
<path d="M21.44 2.56006H10.56C6.14172 2.56006 2.56 6.14178 2.56 10.5601V21.4401C2.56 25.8583 6.14172 29.4401 10.56 29.4401H21.44C25.8583 29.4401 29.44 25.8583 29.44 21.4401V10.5601C29.44 6.14178 25.8583 2.56006 21.44 2.56006Z" stroke="#2F2621" stroke-width="1.5" stroke-linecap="round" stroke-linejoin="round"/>
<path d="M16 21.9703C19.2971 21.9703 21.97 19.2974 21.97 16.0003C21.97 12.7031 19.2971 10.0303 16 10.0303C12.7029 10.0303 10.03 12.7031 10.03 16.0003C10.03 19.2974 12.7029 21.9703 16 21.9703Z" stroke="#2F2621" stroke-width="1.5" stroke-linecap="round" stroke-linejoin="round"/>
<path d="M23.34 10.0299C24.2789 10.0299 25.04 9.26877 25.04 8.32988C25.04 7.391 24.2789 6.62988 23.34 6.62988C22.4011 6.62988 21.64 7.391 21.64 8.32988C21.64 9.26877 22.4011 10.0299 23.34 10.0299Z" stroke="#2F2621" stroke-width="1.5" stroke-linecap="round" stroke-linejoin="round"/>
</svg>
