<svg width="16" height="16" viewBox="0 0 16 16" fill="none" xmlns="http://www.w3.org/2000/svg">
<g clip-path="url(#clip0_177_338)">
<mask id="mask0_177_338" style="mask-type:luminance" maskUnits="userSpaceOnUse" x="0" y="0" width="16" height="16">
<path d="M16 0H0V16H16V0Z" fill="white"/>
</mask>
<g mask="url(#mask0_177_338)">
<path d="M1.34263 4.58103C0.898326 6.708 2.57311 9.23994 4.67647 11.3433C6.77987 13.4467 9.31173 15.1215 11.4387 14.6771C13.188 14.3117 14.081 13.3799 14.5836 12.586C14.757 12.312 14.6695 11.9564 14.4095 11.7625L11.9483 9.9266C11.6829 9.72867 11.3123 9.75547 11.0783 9.9896L9.7718 11.296C9.7718 11.296 8.50193 10.8832 6.8192 9.20054C5.13655 7.51787 4.72376 6.24797 4.72376 6.24797L6.03019 4.94154C6.26432 4.70741 6.29114 4.33694 6.09317 4.07153L4.25723 1.6102C4.06337 1.3503 3.70775 1.26277 3.43379 1.43618C2.6398 1.93876 1.70802 2.83178 1.34263 4.58103Z" stroke="#2F2621" stroke-linecap="round" stroke-linejoin="round"/>
</g>
</g>
<defs>
<clipPath id="clip0_177_338">
<rect width="16" height="16" fill="white"/>
</clipPath>
</defs>
</svg>
